<?xml version="1.0" encoding="utf-8"?>
<!-- Generator: Adobe Illustrator 28.0.0, SVG Export Plug-In . SVG Version: 6.00 Build 0)  -->
<svg version="1.0" xmlns="http://www.w3.org/2000/svg" xmlns:xlink="http://www.w3.org/1999/xlink" x="0px" y="0px"
	 viewBox="0 0 792 612" style="enable-background:new 0 0 792 612;" xml:space="preserve">
<style type="text/css">
	.st0{fill:#111524;}
	.st1{display:none;}
</style>
<g id="Capa_2">
</g>
<g id="Capa_1">
	<path class="st0" d="M289.1,241.4c1.9,0.8,3.7,0.7,5.7,1.4c-3.1,6.1-6,12.3-8.5,18.6c-6.4,16.4-10.4,33.4-12.6,50.8
		c-1.3,10.2-1.8,20.4-2,30.7c0,1.1,0,1.8-1.6,2c-13.8,1.8-27.7,3.8-41.5,5.7c-2.1,0.3-2.7,0-2.1-2.4c5.2-20.7,10.2-41.5,15.2-62.3
		c0.2-0.8,0.6-1.6,1.2-3.2c-19.8,15.7-37.4,32.8-56,49.1c-8.4-16.5-16.9-33.2-25.5-50.1c-1.7,1.8-2.2,3.8-2.8,5.8
		c-5.7,19.4-12,38.6-18.1,57.9c-0.7,2.1-1.5,3.2-3.8,3.5c-14.4,1.9-28.7,4-43.4,6.1c2.3-6.5,4.5-12.7,6.7-18.8
		c10.6-29.7,21.3-59.4,31.9-89.1c1.1-3.2,2.2-6.4,3.4-9.5c0.8-2.1,0.5-3.9-1.3-5.5c-2.3-2.2-4.4-4.6-6.6-6.9
		c2.5-1.1,5.4-0.6,8.3-0.5c13.1,0,26.2,0.2,39.3,0.3c1.3,0,2.1,0.2,2.8,1.5c7.6,14.2,15.3,28.4,23,42.6c1.4,2.6,2.8,5.1,4.3,7.9
		c2.1-2.3,4-4.5,6.1-6.5c15.2-14.6,30.4-29.4,45.3-44.4c0.9-0.9,1.7-1.6,3.2-1.6c16.9,0.1,33.9,0,51,0c-0.4,1.7-1.6,2.7-2.8,3.7
		c-3.5,2.9-6.8,6.1-9.8,9.4c-1.6,1.8-3.9,1.9-5.9,2.8C291.1,240.8,290.1,241,289.1,241.4z"/>
	<path class="st0" d="M557.4,224.4c-3.3,14.6-6.6,29-9.9,43.4c0.2,0.1,0.4,0.2,0.6,0.3c6.2-5,12.5-10,18.7-15
		c11.4-9.2,22.9-18.4,34.3-27.7c0.6-0.5,1.2-1,2.1-1c14,0,27.9,0,42.5,0c-4.7,4.1-8.8,7.9-13.1,11.5c-17,14.3-33.8,29-51.5,42.5
		c-2,1.6-4.2,3-6.2,4.6c-2.8,2.2-2.8,3.2-0.5,5.9c5.9,6.7,11.9,13.3,17.7,20c9.6,11.1,19.2,22.3,28.7,33.4c0.8,0.9,1.5,1.9,2.4,3.2
		c-8.6,0-16.7,0-24.8,0c-6.8,0-13.6,0-20.3,0.1c-1.7,0-2.8-0.5-3.9-1.7c-11-12.6-22.1-25.2-33.1-37.8c-0.7-0.8-1.4-1.5-2.6-2.8
		c-0.9,4.4-1.6,8.3-2.5,12.2c-2.2,9.4-4.4,18.8-6.6,28.3c-0.3,1.3-0.8,1.8-2.3,1.8c-11.4-0.1-22.8,0-34.2,0c-1.6,0-1.8-0.3-1.4-1.9
		c3-12,6-24.1,8.9-36.2c0.4-1.5,1-2.7,2.4-3.6c2.1-1.3,4-2.8,6.5-4.6c-3.1-0.2-4.9,1.6-7.4,1.9c1.4-4.5,2.7-9,4-13.4
		c0.5-1.5,1.9-2,3-2.9c1.3-1.1,2.7-1.9,4.4-3.2c-2.6-0.3-4.2,1-6.3,1.3c0.4-5.2,1.3-10.2,2.4-15.2c2.8-13.2,5.6-26.4,8.4-39.6
		c0.8-3.8,0.8-3.8,4.7-3.8C534.1,224.4,545.7,224.4,557.4,224.4z"/>
	<path class="st0" d="M688.9,224.9c-3.1,13.3-6.1,26.4-9.1,39.7c-6,26.2-12,52.4-17.9,78.6c-0.4,1.9-1.1,2.6-3.1,2.5
		c-10.7-0.1-21.4-0.1-32.1,0c-1.7,0-2.5,0-1.9-2.3c5.9-24.7,11.7-49.5,17.5-74.3c3.3-14.3,6.6-28.5,9.9-42.8c0.3-1.2,0.6-2,2.2-2
		c11.2,0.2,22.5,0.2,33.7,0.4C688.3,224.7,688.5,224.8,688.9,224.9z"/>
</g>
<g id="Capa_4" class="st1">
	
		<image style="display:inline;overflow:visible;" width="1080" height="1350" xlink:href="C189A3C6.jpg"  transform="matrix(0.6407 0 0 0.6407 51.1129 -183.6149)">
	</image>
</g>
<g id="Capa_3">
	<path class="st0" d="M352.2,297.4c27.9,27.3,55.4,54.2,83.1,81.2c-0.1,0.2-0.8,0.2-0.9,0.3c-0.7-0.2-4.3-1.8-4.9-2.1
		c-17.7-9.1-31.5-16.3-49.2-25.4c-1.3-0.7-2.5-1.5-3.5-2.6c-12.3-12.4-24.5-24.9-36.8-37.4c0,0,0,0,0,0c-3.1-5.2-4.8-2.6-3.4,1.7
		c0,0.1,0,0.1,0,0.2c1,5,1.6,10.2,2.7,15.2c0.2,0.9,0.2,1.1,0.4,2.6c-5.5-3-10.3-5.3-15.3-8.1c-0.6-0.3-1-1.1-1.2-1.8
		c-3.1-12.7-5-17.6-7.7-30.4c-1.2-5.8-2.5-18.6-1.8-25.9c2.3,1.6,16.6,11.1,16.6,11.1s-0.2,3.9,1.6,12.4c0.1,0.5,0.2,1,0.3,1.9
		c0.9-0.5,1.6-0.8,2.3-1.2c8.2-5.6,16.4-11.2,24.5-17c2.3-1.6,4.4-1.9,7.1-1.4c6.5,1.3,13,2.1,20.1,3.3c0-1.5,0-2.6,0-3.7
		c0.1-20.5,0.2-41.1,0.3-61.6c0-6,0.9-6.9,6.8-6.9c27,0.3,49.1,10.4,64.2,33.4c7.4,11.3,10.7,24.1,13.1,37.2c0.4,1.9,0.5,3.8,1,5.7
		c0.7,2.6-0.3,3.6-2.9,3.4c-6.6-0.5-13.2-1-19.8-1.5c-12.6-1-25.2-2-37.7-3.1c-2.8-0.2-7.1-0.8-9.9-1c-3.4-0.2-2.3,6.6-2.3,6.6
		l0,33.6c0,0-0.1,4.1,2.3,5.3c20.9,10,41.8,20.8,62.7,30.9c1.3,0.6,2.5,0.8,4,1.6c-2.9,11.1-6.8,21.3-15.2,29.7
		c-10.9-10.1-20.9-19.4-31.8-29.4c-4.2-3.9-8.5-7.8-12.7-11.8c-3.4-3.3-8.1-7.6-8.3-10c-0.3,0.1-0.8-2.8-0.8-2.8s-0.6,2.8-1.1,4.2
		c-4.6-4.2-8.2-7.9-12.8-11.6c-3-2.5-4.6-4.3-4.6-4.3s-0.2-24.8-0.2-34.9c0-1.5-0.2-2.9-0.3-5C370.7,284.5,361.9,290.7,352.2,297.4z
		 M440.9,260.5c4.7,0.2,6.5-2.4,4.6-7.1c-6.2-15.1-17.2-24.9-32.7-29.8c-5.3-1.7-7.4-0.2-7.5,5.3c0,7.7,0,15.4,0,23.1
		c0,3.4,1.4,5.1,4.9,5.5C420.3,258.6,430.4,259.5,440.9,260.5z"/>
	<path class="st0" d="M314.3,260.1c2.9-13.8,8.8-25.8,19.3-35.7c3.8,4.2,7.3,8.2,11.2,12.5c2.3-3.6,4.5-6.9,6.7-10.3
		c4.1-6.4,8.1-12.8,12.4-19.1c0.8-1.2,2.3-2.2,3.7-2.6c4.1-1,8.3-1.6,12.7-2.4c0,5.7,0,11.1,0,16.4c0,11.9,0.1,38.6,0.1,38.6
		s-0.5,0.7-3,1.7c-3,1.2-5.7,3.3-8.5,5.1c-1.7,1.1-3.4,2.1-5.6,3.5c0-9.1,0-17.8,0-26.4c-0.3-0.1-0.5-0.2-0.8-0.3
		c-5.4,8.1-10.8,16.2-16.5,24.8c-4.3-4.9-8.4-9.5-13.3-15c-1.2,3.5-2.3,2.4-3.4,19.2C324.2,266.8,319.3,263.5,314.3,260.1z"/>
	<path class="st0" d="M468.7,347.3c-7.1-3.6-13.9-6.7-20.8-10.2c-10.5-5.2-21.2-10.9-31.8-15.8c-5.5-2.6-8-6.2-8.1-11.9
		c0-4.8,0.1-9.6,0-14.4c-0.1-6.5,5.1-11.9,11.8-11.2c16.9,1.6,33.9,2.8,50.8,4c1.9,0.1,2.7,0.9,2.6,2.8c0,1-0.1,1.9,0.1,2.9
		c0.3,2.6-0.8,3.4-3.3,3.3c-13.3-0.4-26.5-0.7-39.8-0.9c-6.1-0.1-7.8,1.6-7.9,7.7c0,1.9,0,3.9,0.1,5.8c0.2,5,2.4,8.6,6.9,11
		c12.4,6.5,40.2,21.3,40.2,21.3S470,343.1,468.7,347.3z"/>
</g>
</svg>
